<?xml version="1.0" encoding="UTF-8"?>
<svg id="Layer_2" data-name="Layer 2" xmlns="http://www.w3.org/2000/svg" xmlns:xlink="http://www.w3.org/1999/xlink" viewBox="0 0 259.41 285.58">
  <defs>
    <style>
      .cls-1 {
        fill: url(#linear-gradient);
        stroke-width: 0px;
      }
    </style>
    <linearGradient id="linear-gradient" x1="238.86" y1="-4.33" x2="-14.32" y2="256.77" gradientUnits="userSpaceOnUse">
      <stop offset="0" stop-color="#77c47d"/>
      <stop offset="1" stop-color="#3a7e66"/>
    </linearGradient>
  </defs>
  <g id="Layer_1-2" data-name="Layer 1">
    <path class="cls-1" d="M187.3.97c14.23,1.35,27.33,5.94,38.95,14.26,14.26,10.22,24.39,23.62,29.59,40.48,2.65,8.59,3.95,17.4,3.47,26.43-.1,1.94.02,3.88.03,5.82-.79,11.05-2.01,22.08-6.22,32.39-12.59,30.83-32.53,54.83-64.29,67.4-12.69,5.02-26.02,6.61-39.58,6.59-11.2-.02-22.41.05-33.61-.04-5.46-.04-10.71.72-15.65,3.08-7.87,3.75-10.84,10.84-12.29,18.74-2.48,13.46-4.64,26.98-7.42,40.39-.42,2.04-1.26,3.06-3.27,3.61-4.57,1.24-9.09,2.71-13.62,4.11-1.62.5-2.59.11-2.09-1.72,2.6-9.55,3.29-19.46,5.4-29.1,1.88-8.58,3.47-17.22,5.54-25.77,1.55-6.38,4.38-12.1,8.21-17.39,5.33-7.37,13.28-10.25,21.53-12.53,5.51-1.52,11.22-1.63,16.91-1.77,11.67-.3,23.34-.47,35-.91,19.8-.76,37.21-7.87,52.09-20.8,17.04-14.82,27.67-33.36,30.96-55.89,1.96-13.43.96-26.53-4.03-39.22-6.98-17.73-20.33-28.39-38.06-34.16-5.83-1.9-11.82-2.74-17.91-2.77-15.41-.09-30.82-.21-46.22-.08-15.16.12-30.18,1.69-44.47,7.08-20.35,7.67-37.33,19.96-50.36,37.56-5.37,7.25-10.51,14.68-16.4,21.54-2.99,3.48-6.54,6.44-9.23,10.2-.43.6-1.01,1.19-1.92,1.23-.6-.72.04-1.32.26-1.88,1.92-4.98,4.89-9.37,7.8-13.78,2.06-3.12,3.95-6.34,5.77-9.6,8.3-14.91,18.46-28.52,30.24-40.76,14.19-14.74,31.77-24,51.48-29.31,8.61-2.32,17.43-3.17,26.27-3.71,13.29-.82,26.6-.79,39.9-.44,5.75.15,11.49.48,17.24.73ZM137.61,30.52c-10.51.09-21.02.37-31.36,2.5-31.17,6.42-55.88,22.79-74.28,48.66-9.01,12.67-15.67,26.68-22.21,40.72-1.18,2.54-2.21,5.15-3.28,7.73-.2.48-.56,1.11,0,1.5.54.37,1.05-.13,1.43-.48.68-.63,1.38-1.27,1.92-2.02,1.56-2.14,3.07-4.31,4.54-6.51,5.29-7.88,9.72-16.32,15.44-23.92,9.65-12.81,20.76-24.05,34.89-31.9,19.02-10.56,39.28-16.7,61.22-16.81,15.72-.08,31.46-.75,47.13.62,23.85,2.09,40.28,21.81,36.95,45.01-4.19,29.15-22.22,50.74-53.49,56.41-12.73,2.31-25.66,2.96-38.55,3.73-11.42.68-22.5,2.93-32.6,8.18-17.28,8.99-27.54,23.86-32.04,42.43-5.16,21.31-8.91,42.96-14.71,64.13-.4,1.46.09,1.64,1.33,1.34,3.85-.95,7.67-1.98,11.34-3.53,2.22-.94,3.44-2.36,3.88-4.77,2.4-13.01,4.84-26,7.39-38.98,1.7-8.69,2.54-17.6,5.98-25.87,4.4-10.61,10.82-19.51,21.94-23.89,6.77-2.67,13.94-3.92,21.17-4.51,13.34-1.09,26.77-.54,40.1-1.9,10.75-1.09,21.2-3.32,30.97-8.16,12.14-6.02,21.75-14.95,29.63-25.81,13.08-18.01,19.2-37.74,15.26-60.19-4.68-26.72-24.18-40.31-46.61-42.85-10.54-1.19-21.14-.81-30.14-.88-5.47,0-9.36-.03-13.25,0ZM31.5,274.43c1.81-.57,2.56-1.53,2.93-3.35,2.62-12.96,5.26-25.92,8.06-38.84,2.63-12.16,4.72-24.46,9.28-36.12,5.24-13.42,13.06-24.9,25.08-33.2,11.19-7.73,23.84-11.11,37.17-12.66,13.37-1.56,26.87-1.67,40.2-3.77,27.1-4.27,46.14-24.04,48.25-50.79.82-10.31-1.74-19.67-9.59-26.96-6.49-6.02-14.58-8.16-23.11-8.81-13.44-1.02-26.91-.52-40.37-.6-11.29-.07-22.37,1.28-33.21,4.37-14.03,4.01-27.33,9.67-38.84,18.79-16.25,12.87-27.8,29.45-36.78,47.93-6.12,12.61-11.38,25.58-15.8,38.89-.43,1.29-1.35,2.49-1.03,4.5.87-1.36,1.51-2.3,2.07-3.28,7.76-13.5,14.49-27.54,21.71-41.32,3.29-6.27,6.87-12.51,11.93-17.5,18.07-17.82,39.82-28.38,65.04-31.27,19.59-2.25,39.28-2.51,58.99-1.86,3.48.12,6.73,1.21,9.86,2.65,7.38,3.4,11.29,9.24,11.23,17.34-.12,17.28-8.63,31.47-27.89,35.78-8.37,1.87-16.85,3-25.39,3.73-11.16.96-22.32,1.58-33.33,4.03-18.99,4.21-34.33,13.69-45.62,29.69-8.33,11.81-13.72,24.89-17.34,38.77-5.32,20.4-9.46,41.08-14.94,61.44-.58,2.15-1.08,4.32-1.74,6.98,4.71-1.65,8.91-3.22,13.18-4.56ZM68.4,142.57c-3.96,2.76-7.75,5.73-11.57,8.68-12.31,9.49-21.7,21.26-28.38,35.3-4.77,10.03-7.78,20.65-10.96,31.21-6.57,21.82-10.69,44.28-17.17,66.13-.14.49-.61,1.05-.06,1.5.47.39,1.02.1,1.53-.09,2.61-1,5.18-2.17,7.86-2.94,2.93-.83,4.55-2.36,4.45-5.56-.04-1.13.38-2.29.65-3.43,3.8-15.88,7.74-31.73,11.4-47.64,4.07-17.73,9.37-34.99,17.77-51.21,5.39-10.4,11.7-19.99,21.35-27.02,2.69-1.96,5.13-4.25,7.69-6.39-1.84-.3-3.21.51-4.56,1.44Z"/>
  </g>
</svg>