<?xml version="1.0" encoding="UTF-8"?>
<svg id="Layer_2" data-name="Layer 2" xmlns="http://www.w3.org/2000/svg" xmlns:xlink="http://www.w3.org/1999/xlink" viewBox="0 0 1011.23 285.58">
  <defs>
    <style>
      .cls-1 {
        fill: url(#linear-gradient);
        stroke-width: 0px;
      }
    </style>
    <linearGradient id="linear-gradient" x1="0" y1="142.79" x2="1011.23" y2="142.79" gradientUnits="userSpaceOnUse">
      <stop offset="0" stop-color="#77c47d"/>
      <stop offset="1" stop-color="#3a7e66"/>
    </linearGradient>
  </defs>
  <g id="Layer_1-2" data-name="Layer 1">
    <path class="cls-1" d="M187.3.97c14.23,1.35,27.33,5.94,38.95,14.26,14.26,10.22,24.39,23.62,29.59,40.48,2.65,8.59,3.95,17.4,3.47,26.43-.1,1.94.02,3.88.03,5.82-.79,11.05-2.01,22.08-6.22,32.39-12.59,30.83-32.53,54.83-64.29,67.4-12.69,5.02-26.02,6.61-39.58,6.59-11.2-.02-22.41.05-33.61-.04-5.46-.04-10.71.72-15.65,3.08-7.87,3.75-10.84,10.84-12.29,18.74-2.48,13.46-4.64,26.98-7.42,40.39-.42,2.04-1.26,3.06-3.27,3.61-4.57,1.24-9.09,2.71-13.62,4.11-1.62.5-2.59.11-2.09-1.72,2.6-9.55,3.29-19.46,5.4-29.1,1.88-8.58,3.47-17.22,5.54-25.77,1.55-6.38,4.38-12.1,8.21-17.39,5.33-7.37,13.28-10.25,21.53-12.53,5.51-1.52,11.22-1.63,16.91-1.77,11.67-.3,23.34-.47,35-.91,19.8-.76,37.21-7.87,52.09-20.8,17.04-14.82,27.67-33.36,30.96-55.89,1.96-13.43.96-26.53-4.03-39.22-6.98-17.73-20.33-28.39-38.06-34.16-5.83-1.9-11.82-2.74-17.91-2.77-15.41-.09-30.82-.21-46.22-.08-15.16.12-30.18,1.69-44.47,7.08-20.35,7.67-37.33,19.96-50.36,37.56-5.37,7.25-10.51,14.68-16.4,21.54-2.99,3.48-6.54,6.44-9.23,10.2-.43.6-1.01,1.19-1.92,1.23-.6-.72.04-1.32.26-1.88,1.92-4.98,4.89-9.37,7.8-13.78,2.06-3.12,3.95-6.34,5.77-9.6,8.3-14.91,18.46-28.52,30.24-40.76,14.19-14.74,31.77-24,51.48-29.31,8.61-2.32,17.43-3.17,26.27-3.71,13.29-.82,26.6-.79,39.9-.44,5.75.15,11.49.48,17.24.73ZM137.61,30.52c-10.51.09-21.02.37-31.36,2.5-31.17,6.42-55.88,22.79-74.28,48.66-9.01,12.67-15.67,26.68-22.21,40.72-1.18,2.54-2.21,5.15-3.28,7.73-.2.48-.56,1.11,0,1.5.54.37,1.05-.13,1.43-.48.68-.63,1.38-1.27,1.92-2.02,1.56-2.14,3.07-4.31,4.54-6.51,5.29-7.88,9.72-16.32,15.44-23.92,9.65-12.81,20.76-24.05,34.89-31.9,19.02-10.56,39.28-16.7,61.22-16.81,15.72-.08,31.46-.75,47.13.62,23.85,2.09,40.28,21.81,36.95,45.01-4.19,29.15-22.22,50.74-53.49,56.41-12.73,2.31-25.66,2.96-38.55,3.73-11.42.68-22.5,2.93-32.6,8.18-17.28,8.99-27.54,23.86-32.04,42.43-5.16,21.31-8.91,42.96-14.71,64.13-.4,1.46.09,1.64,1.33,1.34,3.85-.95,7.67-1.98,11.34-3.53,2.22-.94,3.44-2.36,3.88-4.77,2.4-13.01,4.84-26,7.39-38.98,1.7-8.69,2.54-17.6,5.98-25.87,4.4-10.61,10.82-19.51,21.94-23.89,6.77-2.67,13.94-3.92,21.17-4.51,13.34-1.09,26.77-.54,40.1-1.9,10.75-1.09,21.2-3.32,30.97-8.16,12.14-6.02,21.75-14.95,29.63-25.81,13.08-18.01,19.2-37.74,15.26-60.19-4.68-26.72-24.18-40.31-46.61-42.85-10.54-1.19-21.14-.81-30.14-.88-5.47,0-9.36-.03-13.25,0ZM31.5,274.43c1.81-.57,2.56-1.53,2.93-3.35,2.62-12.96,5.26-25.92,8.06-38.84,2.63-12.16,4.72-24.46,9.28-36.12,5.24-13.42,13.06-24.9,25.08-33.2,11.19-7.73,23.84-11.11,37.17-12.66,13.37-1.56,26.87-1.67,40.2-3.77,27.1-4.27,46.14-24.04,48.25-50.79.82-10.31-1.74-19.67-9.59-26.96-6.49-6.02-14.58-8.16-23.11-8.81-13.44-1.02-26.91-.52-40.37-.6-11.29-.07-22.37,1.28-33.21,4.37-14.03,4.01-27.33,9.67-38.84,18.79-16.25,12.87-27.8,29.45-36.78,47.93-6.12,12.61-11.38,25.58-15.8,38.89-.43,1.29-1.35,2.49-1.03,4.5.87-1.36,1.51-2.3,2.07-3.28,7.76-13.5,14.49-27.54,21.71-41.32,3.29-6.27,6.87-12.51,11.93-17.5,18.07-17.82,39.82-28.38,65.04-31.27,19.59-2.25,39.28-2.51,58.99-1.86,3.48.12,6.73,1.21,9.86,2.65,7.38,3.4,11.29,9.24,11.23,17.34-.12,17.28-8.63,31.47-27.89,35.78-8.37,1.87-16.85,3-25.39,3.73-11.16.96-22.32,1.58-33.33,4.03-18.99,4.21-34.33,13.69-45.62,29.69-8.33,11.81-13.72,24.89-17.34,38.77-5.32,20.4-9.46,41.08-14.94,61.44-.58,2.15-1.08,4.32-1.74,6.98,4.71-1.65,8.91-3.22,13.18-4.56ZM68.4,142.57c-3.96,2.76-7.75,5.73-11.57,8.68-12.31,9.49-21.7,21.26-28.38,35.3-4.77,10.03-7.78,20.65-10.96,31.21-6.57,21.82-10.69,44.28-17.17,66.13-.14.49-.61,1.05-.06,1.5.47.39,1.02.1,1.53-.09,2.61-1,5.18-2.17,7.86-2.94,2.93-.83,4.55-2.36,4.45-5.56-.04-1.13.38-2.29.65-3.43,3.8-15.88,7.74-31.73,11.4-47.64,4.07-17.73,9.37-34.99,17.77-51.21,5.39-10.4,11.7-19.99,21.35-27.02,2.69-1.96,5.13-4.25,7.69-6.39-1.84-.3-3.21.51-4.56,1.44ZM328.38,226.15h-15.27v-77.31h45.67c4.54,0,8.58.55,12.12,1.66,3.54,1.1,6.42,2.64,8.62,4.62,2.21,1.98,3.88,4.28,5.01,6.9s1.7,5.5,1.7,8.62v8.05c0,3.07-.55,5.9-1.66,8.51-1.1,2.61-2.74,4.91-4.92,6.92-2.18,2.01-5.05,3.58-8.62,4.71-3.57,1.13-7.66,1.7-12.26,1.7h-30.4v25.62ZM328.38,185.27h30.4c3.53,0,6.13-.19,7.82-.57,1.69-.38,2.83-1.01,3.45-1.89.61-.87.92-2.25.92-4.12v-8.05c0-1.87-.3-3.23-.9-4.09-.6-.86-1.74-1.48-3.43-1.86-1.69-.38-4.31-.58-7.86-.58h-30.4v21.16ZM431.81,148.84c6.44,0,12.28,1.13,17.52,3.4,5.24,2.27,9.37,5.45,12.37,9.54s4.51,8.7,4.51,13.82v23.82c0,5.12-1.51,9.72-4.53,13.8-3.02,4.08-7.14,7.25-12.37,9.52-5.23,2.27-11.06,3.4-17.5,3.4h-3.17c-6.44,0-12.27-1.13-17.5-3.4-5.23-2.27-9.34-5.44-12.35-9.52-3-4.08-4.51-8.68-4.51-13.8v-23.82c0-5.12,1.5-9.73,4.51-13.82,3-4.09,7.12-7.27,12.35-9.54,5.23-2.27,11.06-3.4,17.5-3.4h3.17ZM409.55,199.43c0,3.65,1.59,6.47,4.76,8.46,3.17,1.99,7.95,2.99,14.33,2.99h3.17c6.38,0,11.16-1,14.35-2.99,3.19-1.99,4.78-4.81,4.78-8.46v-23.82c0-3.68-1.59-6.52-4.78-8.51-3.19-1.99-7.97-2.99-14.35-2.99h-3.17c-6.38,0-11.15,1-14.33,2.99-3.17,1.99-4.76,4.83-4.76,8.51v23.82ZM478.08,226.15v-15.27h47.65c3.37,0,5.83-.17,7.38-.51,1.55-.34,2.59-.89,3.13-1.66.54-.77.8-2.01.8-3.73,0-1.41-.12-2.53-.34-3.36-.23-.83-.72-1.56-1.47-2.21-.75-.64-1.78-1.13-3.08-1.47-1.3-.34-3.09-.66-5.36-.97l-28.05-3.54c-7.63-.98-13.48-3.46-17.54-7.45-4.06-3.99-6.09-9.06-6.09-15.22,0-6.59,2.6-11.89,7.79-15.89,5.2-4,12.81-6,22.83-6h36.52v15.27h-36.52c-4.29,0-7.53.21-9.7.64-2.18.43-3.66,1.1-4.46,2-.8.9-1.2,2.23-1.2,3.98,0,1.38.11,2.45.32,3.22.21.77.71,1.45,1.47,2.05.77.6,1.79,1.06,3.08,1.38s3.1.64,5.43.94l28.05,3.54c7.57.95,13.4,3.48,17.48,7.59,4.08,4.11,6.12,9.27,6.12,15.5s-2.28,11.38-6.83,15.29c-4.55,3.91-11.14,5.86-19.75,5.86h-47.65ZM617.98,226.15h-15.27v-62.04h-42.73v-15.27h97.78v15.27h-39.78v62.04ZM762.12,148.8v15.27h-53.86v19.64h42.54v15.27h-42.54v27.18h-15.27v-77.36h69.12ZM833.63,210.88v15.27h-63.83l.05-76.85h15.27l-.05,61.58h48.57ZM910.39,148.84v15.27h-53.86v16.69h46.31v15.27h-46.31v8.42c0,1.81.3,3.14.9,4,.6.86,1.73,1.47,3.4,1.84,1.67.37,4.27.55,7.8.55h41.81v15.27h-41.81c-4.57,0-8.62-.56-12.14-1.68-3.53-1.12-6.39-2.67-8.58-4.65-2.19-1.98-3.85-4.26-4.97-6.85-1.12-2.59-1.68-5.42-1.68-8.49v-55.65h69.12ZM1010.51,220.68l-10.58,10.95-35.23-33.9-35.96,33.94-10.49-11.04,35.46-33.44-33.67-32.42,10.58-10.95,34.17,32.88,34.95-32.93,10.49,11.04-34.45,32.47,34.72,33.39ZM363.06,64.53h12.35v20.6h23.43v-20.6h12.35v20.6h19.56c1.59,0,2.6-.22,3.05-.67s.67-1.46.67-3.05v-21.72h12.35v24.77c0,.35.14.55.43.6.29.05,1.27.07,2.96.07h9.19c1.69,0,3.14.61,4.35,1.82,1.21,1.22,1.82,2.67,1.82,4.35s-.61,3.14-1.82,4.35c-1.22,1.21-2.67,1.82-4.35,1.82h-9.19c-3.94,0-7.3-.95-10.08-2.86-2.73,1.91-5.85,2.86-9.37,2.86h-55.34v.45c0,2.26-.45,4.4-1.36,6.43-.91,2.03-2.23,3.87-3.98,5.5s-4.05,2.94-6.9,3.91c-2.85.97-6.06,1.45-9.63,1.45h-37.9v-41.95h12.35v29.6h25.55c2.63,0,4.64-.18,6.03-.54,1.39-.36,2.32-.87,2.79-1.54s.71-1.62.71-2.86v-33.4ZM505.87,28.38l7.81,9.52-24.1,19.75h36.71c3.42,0,6.46.43,9.13,1.28,2.67.85,4.82,2.03,6.45,3.53,1.64,1.5,2.88,3.23,3.72,5.19.84,1.96,1.26,4.1,1.26,6.43v11.05h9.48c1.69,0,3.14.61,4.35,1.82,1.21,1.22,1.82,2.67,1.82,4.35s-.61,3.14-1.82,4.35-2.67,1.82-4.35,1.82h-97.89c-1.69,0-3.14-.61-4.35-1.82s-1.82-2.67-1.82-4.35.61-3.14,1.82-4.35c1.21-1.21,2.67-1.82,4.35-1.82h76.06v-11.05c0-1.24-.19-2.13-.56-2.66-.37-.53-1.1-.9-2.19-1.12-1.09-.21-2.91-.32-5.47-.32h-55.9l-3.61-9.63,39.09-31.98ZM570.62,65.31h12.35v17.33c0,1.24.14,1.97.43,2.18.29.21,1.28.32,2.99.32h9.48c1.69,0,3.14.61,4.35,1.82,1.21,1.22,1.82,2.67,1.82,4.35s-.61,3.14-1.82,4.35-2.67,1.82-4.35,1.82h-9.48c-3.99,0-7.33-.95-10-2.86-2.95,1.91-6.72,2.86-11.31,2.86h-9.74c-1.69,0-3.14-.61-4.35-1.82s-1.82-2.67-1.82-4.35.61-3.14,1.82-4.35c1.21-1.21,2.67-1.82,4.35-1.82h12.07c.48,0,.99-.05,1.51-.15.52-.1.86-.19,1-.26.15-.07.3-.26.46-.56.16-.3.24-.58.24-.86v-18ZM561.62,114.59v-10.45h13.02v10.45h-13.02ZM577.46,114.63v-10.45h13.02v10.45h-13.02ZM594.87,97.48c-1.69,0-3.14-.61-4.35-1.82s-1.82-2.67-1.82-4.35.61-3.14,1.82-4.35c1.21-1.21,2.67-1.82,4.35-1.82h9.11c1.59,0,2.6-.22,3.05-.67s.67-1.46.67-3.05v-47.75h12.35v47.75c0,1.74.17,2.79.52,3.16.35.37,1.31.56,2.9.56h8.37c1.69,0,3.14.61,4.35,1.82,1.21,1.22,1.82,2.67,1.82,4.35s-.61,3.14-1.82,4.35-2.67,1.82-4.35,1.82h-8.37c-3.77,0-7.02-1.04-9.75-3.12-2.83,2.08-6.07,3.12-9.74,3.12h-9.11ZM626.45,95.66c-1.21-1.21-1.82-2.67-1.82-4.35s.61-3.14,1.82-4.35c1.21-1.21,2.67-1.82,4.35-1.82h8.41c-.05-.5-.07-.88-.07-1.15v-7.59c0-.99.08-2.01.24-3.05s.47-2.19.93-3.44c.46-1.25,1.05-2.44,1.77-3.57.72-1.13,1.67-2.23,2.86-3.31,1.19-1.08,2.55-2.01,4.07-2.79,1.52-.78,3.38-1.41,5.58-1.88,2.19-.47,4.61-.71,7.23-.71h28.41v39.83h-59.43c-1.69,0-3.14-.61-4.35-1.82ZM677.88,85.13v-15.14h-16.07c-1.86,0-3.44.11-4.74.33s-2.31.51-3.03.86c-.72.35-1.28.82-1.67,1.41-.4.6-.65,1.17-.74,1.71-.1.55-.15,1.24-.15,2.08v7.59c0,.47.28.78.84.93.56.15,1.89.22,4,.22h21.57ZM659.7,50.32v-10.45h13.02v10.45h-13.02ZM718.72,65.24h12.35v12.31c0,1.98.37,3.5,1.1,4.56.73,1.05,2.03,1.82,3.89,2.31s4.56.73,8.11.73h44.26c3.27,0,5.42-.19,6.45-.56,1.03-.37,1.59-1.2,1.69-2.49v-9.93h.04v-12.46h12.35v21.35c0,.52-.01.92-.04,1.19v2.23c0,.35.14.55.43.6.28.05,1.28.07,2.99.07h9.15c1.69,0,3.14.61,4.35,1.82,1.21,1.22,1.82,2.67,1.82,4.35s-.61,3.14-1.82,4.35-2.67,1.82-4.35,1.82h-9.15c-4.12,0-7.64-1.05-10.56-3.16-3.5,2.11-7.95,3.16-13.35,3.16h-44.26c-7.81,0-14-1.74-18.58-5.21-4.57-3.47-6.86-8.38-6.86-14.73v-12.31ZM750.48,55.97v-10.45h13.02v10.45h-13.02ZM766.32,56.01v-10.45h13.02v10.45h-13.02ZM833.12,64.53h12.35v20.6h23.43v-20.6h12.35v20.6h23.25v-25.44h12.35v37.79h-96.4c-1.69,0-3.14-.61-4.35-1.82s-1.82-2.67-1.82-4.35.61-3.14,1.82-4.35c1.21-1.21,2.67-1.82,4.35-1.82h12.68v-20.6ZM923.76,78.29c-.02-6.05,2.01-10.76,6.12-14.13,4.1-3.37,9.71-5.06,16.83-5.06h26.59v26.03h9.08c1.69,0,3.14.61,4.35,1.82,1.21,1.22,1.82,2.67,1.82,4.35s-.61,3.14-1.82,4.35-2.67,1.82-4.35,1.82h-9v.93c0,6.35-2.29,11.26-6.86,14.73-4.57,3.47-10.77,5.21-18.58,5.21h-19.26v-12.35h19.26c3.55,0,6.25-.24,8.11-.73,1.86-.48,3.16-1.25,3.89-2.31.73-1.05,1.1-2.57,1.1-4.56v-.93h-11.83c-5.13,0-9.59-.72-13.37-2.16-3.78-1.44-6.73-3.61-8.85-6.51-2.12-2.9-3.19-6.41-3.22-10.53ZM946.7,71.45c-3.03,0-5.28.2-6.75.6-1.48.4-2.49,1.05-3.05,1.97-.56.92-.82,2.32-.8,4.2,0,1.81.36,3.19,1.08,4.15.72.95,2.01,1.65,3.87,2.1,1.86.45,4.57.67,8.14.67h11.75v-13.69h-14.25ZM998.88,60.14h12.35v37.34h-29.79c-1.69,0-3.14-.61-4.35-1.82s-1.82-2.67-1.82-4.35.61-3.14,1.82-4.35c1.21-1.21,2.67-1.82,4.35-1.82h17.44v-24.99ZM990.48,114.63v-10.45h13.02v10.45h-13.02Z"/>
  </g>
</svg>